<svg xmlns="http://www.w3.org/2000/svg" width="608" height="320" viewBox="0 0 608 320">
  <g fill="#848494">
    <path d="M404.842 125.11h47.72L390.007 231h-48.684l-17.06-105.89h47.96l2.735 62.075 19.316-40.126 10.568-21.95M291.512 231h-41.726l22.748-105.89h41.727L291.513 231M254.858 125.11h6.717l-7.103 33.05-5.88.584c-.798 0-1.574.065-2.324.185-.744.132-1.547.32-2.397.584-5.176 1.022-10.334 3.067-15.47 6.147-5.14 3.082-8.797 6.348-10.98 9.8-.3.638-.59 1.29-.89 1.925-.3.638-.518 1.275-.657 1.913L204.768 231H163.04l11.38-52.95c7.136-33.222 46.545-52.94 80.438-52.94zM477.414 230.986c-20.112-.12-32.857-4.9-38.247-14.326-5.383-9.426-7.03-19.85-4.932-31.255.106-.995.285-1.965.53-2.895.253-.93.506-1.886.778-2.88l.744-2.79c.23-.863.457-1.713.677-2.51.212-.81.504-1.58.862-2.324 3.797-11.79 10.953-22.558 21.474-32.29 10.528-9.733 26.02-14.606 46.48-14.606 20.305 0 33.11 4.873 38.414 14.605 5.303 9.734 6.777 20.502 4.42 32.29-.04.745-.166 1.516-.385 2.325-.22.797-.44 1.646-.67 2.51l-.75 2.79c-.266.994-.524 1.95-.77 2.88-.253.93-.59 1.9-1.016 2.895-4.016 11.406-11.285 21.83-21.806 31.255-10.514 9.428-25.768 14.14-45.748 14.14l-.056.186zm29.89-57.863c.133-.504.266-.997.4-1.5.13-.492.184-.983.158-1.488.504-2.47.737-4.832.697-7.063-.042-2.23-.267-3.784-.673-4.647-.092-.252-.22-.53-.378-.85-.153-.305-.28-.585-.372-.836-.504-1.116-1.294-2.046-2.37-2.79-1.082-.744-3.22-1.115-6.42-1.115-3.192 0-5.53.37-7.008 1.115-1.48.744-2.77 1.674-3.864 2.79-.232.25-.504.53-.83.835-.32.32-.598.598-.823.85-.87.863-1.925 2.417-3.16 4.647-1.24 2.23-2.27 4.594-3.1 7.063-.29.506-.505.997-.637 1.487-.133.504-.266.997-.398 1.5l-2.244 8.365-.498 1.872c-.166.61-.25 1.234-.258 1.858-.44 2.23-.61 4.368-.518 6.413.086 2.046.34 3.506.744 4.383.092.238.22.518.378.836.152.305.28.584.372.835.504 1.115 1.294 2.045 2.37 2.79 1.082.743 3.22 1.114 6.418 1.114 3.193 0 5.53-.372 7.01-1.116 1.48-.744 2.77-1.674 3.863-2.79.226-.25.506-.53.83-.835.32-.32.598-.6.823-.837.87-.877 1.9-2.337 3.087-4.382 1.188-2.044 2.164-4.18 2.92-6.412.325-.624.57-1.248.737-1.86l.498-1.87 2.245-8.365z"/>
    <path d="M89.58 125.11c-14.072 0-25.47 9.335-29.28 27.1h26.543l-9.795 37.856C72.063 213.236 80.34 231 109.015 231h24.7l6.398-29.795h-13.19c-13.062 0-8.794-10.117-6.623-18.257l8.353-30.737h44.558c8.737-12.812 26.884-24.642 41.17-27.1H89.58zM278.09 114.644c10.513-13.172 26.656-22.626 43.89-27.644l-5.59 27.644h-38.3zM100.265 114.644c10.514-13.172 26.657-22.626 43.89-27.644l-5.59 27.644h-38.3z"/>
  </g>
</svg>
