<?xml version="1.0" encoding="utf-8"?>
<!-- Generator: Adobe Illustrator 17.0.0, SVG Export Plug-In . SVG Version: 6.00 Build 0)  -->
<!DOCTYPE svg PUBLIC "-//W3C//DTD SVG 1.1//EN" "http://www.w3.org/Graphics/SVG/1.1/DTD/svg11.dtd">
<svg version="1.1" id="Layer_1" xmlns="http://www.w3.org/2000/svg" xmlns:xlink="http://www.w3.org/1999/xlink" x="0px" y="0px"
	 width="1920px" height="1080px" viewBox="0 0 1920 1080" style="enable-background:new 0 0 1920 1080;" xml:space="preserve">
<style type="text/css">
	.txt-rect{fill:#B05158;}
	.st1{fill:none;stroke:#B05158;stroke-width:2;stroke-miterlimit:10;}
	.st2{fill:#FFFFFF;}
	.st3{font-family:'Raleway-Bold';}
	.st4{font-size:24;}
	.st5{letter-spacing:2;}
</style>
<g>
	<rect x="315" y="62" class="txt-rect" width="262" height="84"/>
	<rect x="308" y="57" class="st1" width="274" height="96"/>
	<g>
		<text transform="matrix(1 0 0 1 326.9851 98.1121)"><tspan x="0" y="0" class="st2 st3 st4 st5">CAPITAL GARDEN </tspan><tspan x="33.18" y="32" class="st2 st3 st4 st5">RESIDENCES</tspan></text>
	</g>
</g>
<g>
	<rect x="137" y="218" class="txt-rect" width="210" height="84"/>
	<rect x="130" y="213" class="st1" width="222" height="96"/>
	<g>
		<text transform="matrix(1 0 0 1 193.4963 254.1121)"><tspan x="0" y="0" class="st2 st3 st4 st5">OFFICE </tspan><tspan x="-27.023" y="32" class="st2 st3 st4 st5">BUILDINGS</tspan></text>
	</g>
</g>
<g>
	<rect x="843" y="912" class="txt-rect" width="262" height="84"/>
	<rect x="836" y="907" class="st1" width="274" height="96"/>
	<g>
		<text transform="matrix(1 0 0 1 860.8293 948.1121)"><tspan x="0" y="0" class="st2 st3 st4 st5">BOTANICO MALL </tspan><tspan x="13.476" y="32" class="st2 st3 st4 st5">&amp; RESIDENCES</tspan></text>
	</g>
</g>
<g>
	<rect x="1291" y="88" class="txt-rect" width="262" height="84"/>
	<rect x="1284" y="83" class="st1" width="274" height="96"/>
	<text transform="matrix(1 0 0 1 1364.905 122.1121)"><tspan x="0" y="0" class="st2 st3 st4 st5">PHASE 3 </tspan><tspan x="-44.916" y="32" class="st2 st3 st4 st5">DEVELOPMENT</tspan></text>
</g>
</svg>
